# xmcd
#
# Track frame offsets: 
#        150
#        9337
#        18916
#        29853
#        39615
#        49837
#        59376
#        69284
#        80695
#        88979
#        99428
#        111383
#        124169
#        135809
#        149746
#        158859
#        170136
#        179946
#        192837
#        204132
#        214617
#        227942
#        234216
#        239575
#        241672
#        243423
#        245332
#        247037
#        256601
#
# Disc length: 3590 seconds
#
# Revision: 0
# Processed by: cddbd v1.5.2PL0 Copyright (c) Steve Scherf et al.
# Submitted via: ExactAudioCopy v0.95b3
#
DISCID=9b0e041d
DTITLE=The Beatles  - With The Beatles - Deluxe - Mono - Disc 2  FLAC
DYEAR=1900
DGENRE=
TTITLE0=rom Me To You
TTITLE1=Thank You Girl
TTITLE2=She Loves You
TTITLE3=I'll Get You
TTITLE4=It Won't Be Long
TTITLE5=All I've Got To Do
TTITLE6=All My Loving
TTITLE7=Don't Bother Me
TTITLE8=Little Child
TTITLE9=Till There Was you
TTITLE10=Please Mister Postman
TTITLE11=Roll Over Beethoven
TTITLE12=Hold Me Tight
TTITLE13=You Really Got A Hold On Me
TTITLE14=I Wanna Be Your Man
TTITLE15=Devil In Her Heart
TTITLE16=Not A Second Time
TTITLE17=Money
TTITLE18=I Want To Hold Your Hand
TTITLE19=This Boy
TTITLE20=One After 909 (anthology)
TTITLE21=From Me To You - take 8 restored
TTITLE22=From Me To You - take 9 restored
TTITLE23=From Me To You - take 10 restored
TTITLE24=From Me To You - take 11
TTITLE25=From Me To You - take 12 restored
TTITLE26=From Me To You - take 13
TTITLE27=From Me To You - edit
TTITLE28=One After 909 (take 2 - mono)
EXTD=
EXTT0=
EXTT1=
EXTT2=
EXTT3=
EXTT4=
EXTT5=
EXTT6=
EXTT7=
EXTT8=
EXTT9=
EXTT10=
EXTT11=
EXTT12=
EXTT13=
EXTT14=
EXTT15=
EXTT16=
EXTT17=
EXTT18=
EXTT19=
EXTT20=
EXTT21=
EXTT22=
EXTT23=
EXTT24=
EXTT25=
EXTT26=
EXTT27=
EXTT28=
PLAYORDER=
